# xmcd CD database file
#
# Track frame offsets:
#	150
#	22725
#	42535
#	57755
#	78155
#	97807
#	113550
#	128700
#	147527
#	165757
#	180005
#	192485
#	209102
#	228252
#
# Disc length: 3179 seconds
#
# Revision: 0
# Processed by: cddbd v1.5.2PL0 Copyright (c) Steve Scherf et al.
# Submitted via: CDex 1.70beta2
#
DISCID=a90c690e
DTITLE=Fragoso&Etschmann - havanna feelings
DYEAR=1900
DGENRE=Salsa
TTITLE0=Siboney
TTITLE1=Cara a Cara
TTITLE2=El Manisero
TTITLE3=Mi Ayer
TTITLE4=Tabú
TTITLE5=Bada Negra
TTITLE6=Tú
TTITLE7=Arolla Cubano
TTITLE8=Tengo
TTITLE9=Corazón
TTITLE10=El Bodeguero
TTITLE11=En Falso
TTITLE12=Mango Mangüe
TTITLE13=Por eso te quiero
EXTD=
EXTT0=
EXTT1=
EXTT2=
EXTT3=
EXTT4=
EXTT5=
EXTT6=
EXTT7=
EXTT8=
EXTT9=
EXTT10=
EXTT11=
EXTT12=
EXTT13=
PLAYORDER=
